<?xml version="1.0" standalone="no"?>
<!DOCTYPE svg PUBLIC "-//W3C//DTD SVG 20010904//EN"
 "http://www.w3.org/TR/2001/REC-SVG-20010904/DTD/svg10.dtd">
<svg version="1.0" xmlns="http://www.w3.org/2000/svg"
 width="512.000000pt" height="512.000000pt" viewBox="0 0 512.000000 512.000000"
 preserveAspectRatio="xMidYMid meet">

<g transform="translate(0.000000,512.000000) scale(0.100000,-0.100000)"
fill="#000000" stroke="none">
<path d="M1025 4510 c-495 -286 -908 -529 -918 -541 -16 -20 -17 -86 -17
-1073 1 -810 3 -1055 13 -1067 20 -27 1816 -1059 1843 -1059 13 0 179 90 370
200 190 110 347 200 348 200 1 0 23 -20 48 -44 73 -69 146 -121 235 -166 251
-125 564 -124 810 4 l88 46 62 -62 c55 -54 63 -67 63 -100 0 -20 5 -49 10 -65
16 -41 626 -651 675 -674 90 -42 139 -22 262 102 119 121 135 166 94 254 -23
49 -633 659 -674 675 -16 5 -45 10 -65 10 -33 0 -46 8 -100 63 l-62 62 46 88
c124 240 129 556 12 794 -74 150 -193 289 -311 363 l-56 35 -1 697 0 697 -22
25 c-13 13 -243 151 -513 306 -489 282 -1083 624 -1225 707 -41 23 -84 43 -95
43 -11 0 -425 -234 -920 -520z m1768 -120 c433 -250 787 -457 787 -461 0 -3
-111 -70 -246 -148 l-247 -142 -286 164 c-157 91 -484 279 -726 419 -242 140
-482 278 -532 307 -51 30 -93 56 -93 60 1 3 112 70 248 148 l247 142 30 -18
c17 -9 384 -221 818 -471z m-679 -352 c441 -253 807 -466 814 -473 10 -9 -24
-33 -163 -113 l-175 -101 -143 83 c-78 45 -441 255 -807 465 -366 211 -670
389 -677 395 -9 8 29 35 155 108 92 53 173 97 181 98 8 0 375 -208 815 -462z
m-486 -293 c446 -258 812 -471 812 -475 0 -8 -483 -285 -496 -284 -6 1 -186
102 -400 226 -214 123 -579 334 -811 468 -233 134 -423 246 -423 249 0 8 492
291 499 287 3 -1 372 -214 819 -471z m236 -884 c14 -12 16 -104 16 -957 0
-519 -2 -944 -4 -944 -2 0 -372 213 -822 473 l-819 472 -3 952 -2 951 809
-467 c445 -257 816 -473 825 -480z m1796 350 l0 -589 -59 19 c-305 94 -658 3
-892 -230 -155 -156 -245 -352 -265 -582 -12 -144 35 -358 108 -488 24 -43 27
-56 16 -62 -7 -5 -132 -77 -278 -162 l-265 -153 -3 945 -2 946 21 15 c12 8
125 74 251 147 l228 132 0 -280 0 -280 25 -24 c13 -14 32 -25 42 -25 10 0 137
69 283 153 182 104 268 160 277 177 9 18 13 106 13 337 l0 311 243 141 c133
77 245 141 250 141 4 0 7 -265 7 -589z m-642 -27 l-3 -246 -170 -99 c-93 -54
-173 -99 -178 -99 -4 0 -6 111 -5 246 l3 246 170 99 c94 54 173 99 178 99 4 0
6 -111 5 -246z m531 -674 c215 -60 389 -204 486 -405 57 -116 77 -203 77 -335
1 -130 -19 -215 -77 -335 -77 -158 -192 -273 -350 -350 -120 -58 -205 -78
-335 -77 -132 0 -219 20 -335 77 -464 226 -577 833 -224 1210 110 117 285 210
440 234 88 14 230 5 318 -19z m521 -1395 l44 -45 -32 -32 -32 -33 -47 47 -47
47 29 31 c16 16 31 30 35 30 3 0 26 -20 50 -45z m517 -407 c167 -167 303 -309
303 -316 0 -18 -127 -150 -153 -158 -16 -5 -76 50 -323 297 -167 167 -304 311
-304 319 0 19 140 160 160 160 8 0 151 -136 317 -302z"/>
<path d="M3185 2434 c-183 -45 -361 -188 -443 -354 -59 -120 -75 -199 -70
-340 4 -90 10 -131 31 -188 137 -390 575 -572 943 -393 371 180 498 646 270
989 -82 124 -204 219 -348 269 -61 22 -94 27 -198 29 -87 3 -143 -1 -185 -12z
m298 -139 c190 -49 348 -209 392 -396 80 -343 -178 -670 -528 -669 -143 0
-272 55 -378 160 -108 106 -159 231 -159 388 0 230 147 430 372 506 87 30 211
35 301 11z"/>
</g>
</svg>
