<?xml version="1.0" standalone="no"?>
<!DOCTYPE svg PUBLIC "-//W3C//DTD SVG 20010904//EN"
 "http://www.w3.org/TR/2001/REC-SVG-20010904/DTD/svg10.dtd">
<svg version="1.0" xmlns="http://www.w3.org/2000/svg"
 width="5157.000000pt" height="3438.000000pt" viewBox="0 0 5157.000000 3438.000000"
 preserveAspectRatio="xMidYMid meet">

<g transform="translate(0.000000,3438.000000) scale(0.100000,-0.100000)"
fill="#000000" stroke="none">
<path d="M20624 30165 c-30 -52 -65 -61 -85 -22 -30 55 -58 49 -117 -26 -87
-111 -235 -207 -432 -280 -113 -42 -201 -65 -426 -112 -442 -91 -733 -210
-958 -394 -171 -138 -296 -373 -296 -554 0 -29 -7 -53 -19 -68 -19 -23 -19
-23 -55 -6 -110 52 -270 -14 -339 -140 -36 -67 -50 -166 -37 -259 29 -210 151
-417 365 -621 94 -91 105 -104 95 -122 -6 -11 -19 -25 -31 -31 -34 -19 -79
-90 -79 -127 0 -82 88 -166 263 -252 222 -108 429 -155 601 -136 87 9 93 19
70 126 l-18 81 -66 44 c-211 139 -384 418 -355 573 17 92 90 163 181 177 65 9
142 -31 200 -105 38 -48 112 -185 152 -283 14 -34 20 -34 62 -5 56 37 58 65
15 160 -119 259 -153 432 -104 533 35 73 39 75 486 210 632 190 943 322 1148
484 113 91 172 177 216 320 34 107 34 300 1 414 -51 177 -164 340 -295 425
-83 55 -109 54 -143 -4z"/>
<path d="M33769 30009 c-142 -20 -300 -74 -425 -144 -186 -104 -388 -298 -512
-491 l-32 -51 -158 -6 c-86 -3 -242 -6 -347 -7 -104 -1 -266 -5 -360 -9 l-170
-6 -3 -27 c-3 -24 4 -30 92 -71 235 -112 422 -290 542 -517 19 -37 46 -73 62
-82 26 -16 130 -29 345 -44 62 -4 97 -10 97 -18 0 -6 -85 -227 -188 -491
l-188 -480 50 -13 c102 -26 190 -96 407 -322 138 -143 182 -183 218 -197 96
-37 201 -8 302 85 54 50 60 61 300 569 284 603 276 575 202 698 -22 39 -40 71
-38 73 2 2 51 0 110 -4 l108 -7 291 -232 c160 -127 343 -271 406 -319 l115
-87 33 38 c127 144 248 396 294 608 20 93 17 362 -6 465 -135 623 -745 1106
-1387 1099 -57 -1 -129 -5 -160 -10z"/>
<path d="M34349 27586 c-128 -45 -257 -224 -376 -521 -24 -60 -63 -139 -85
-175 -23 -36 -124 -202 -224 -370 -268 -449 -245 -425 -404 -424 l-109 1 16
-36 c8 -20 23 -58 33 -86 102 -278 138 -310 390 -345 493 -70 978 -31 1297
103 178 75 256 133 268 200 10 54 12 52 -285 472 -109 154 -336 479 -343 491
-4 7 21 41 61 80 38 38 85 94 106 124 42 63 76 163 76 224 0 55 -51 158 -93
190 -98 73 -238 104 -328 72z"/>
<path d="M25085 26284 c-33 -2 -145 -8 -250 -14 -1349 -75 -2721 -379 -3980
-882 -110 -44 -210 -85 -222 -92 -22 -11 -19 -16 99 -116 130 -113 386 -362
513 -500 138 -151 413 -504 500 -643 34 -54 41 -56 201 -81 647 -101 1310 49
1957 441 l128 78 87 175 c87 174 87 175 125 181 20 3 37 4 37 2 0 -2 -20 -40
-44 -86 -25 -45 -57 -108 -71 -141 l-26 -58 53 38 c289 208 540 426 828 716
123 124 195 205 214 240 61 114 135 191 220 228 53 24 139 34 191 23 30 -7 58
-4 110 10 104 28 213 24 385 -13 237 -51 350 -69 435 -70 94 0 187 21 230 53
126 92 182 115 232 96 37 -14 79 -54 94 -92 12 -28 11 -32 -12 -49 -13 -11
-111 -85 -216 -165 -106 -80 -193 -148 -193 -152 0 -17 205 -64 280 -65 75 -1
75 -1 265 92 237 117 303 142 369 142 66 0 86 -12 65 -37 -9 -10 -28 -31 -42
-48 -53 -62 -176 -219 -173 -222 1 -1 32 13 68 32 104 55 333 144 401 155 126
20 199 8 241 -39 19 -21 19 -22 0 -36 -10 -8 -46 -29 -79 -46 -33 -18 -264
-147 -514 -287 l-453 -254 -112 11 c-110 12 -166 20 -421 61 -327 53 -662 130
-890 204 -95 31 -107 33 -112 18 -41 -120 -132 -341 -195 -474 -156 -331 -314
-593 -525 -869 -40 -53 -73 -99 -73 -103 0 -7 2574 -8 2582 0 15 15 -202 524
-349 818 -57 114 -102 211 -99 214 3 3 20 1 37 -4 29 -8 41 -27 130 -204 110
-217 188 -389 294 -650 l72 -175 1182 -8 1183 -8 57 -32 56 -32 -340 -6 c-187
-3 -735 -7 -1217 -8 -621 -1 -878 -4 -878 -12 0 -6 30 -95 66 -197 70 -196
145 -427 215 -659 45 -153 159 -563 159 -575 0 -12 -60 -40 -74 -35 -7 3 -18
31 -25 63 -66 295 -369 1296 -422 1396 -9 17 -87 17 -1367 11 l-1357 -6 -149
-154 c-300 -310 -592 -531 -953 -723 -111 -59 -124 -68 -133 -100 -44 -154
-257 -1196 -247 -1206 2 -2 37 -11 78 -19 267 -57 569 -61 747 -10 50 15 53
18 87 85 84 166 258 292 485 350 147 37 390 54 390 28 0 -7 -23 -49 -50 -93
-45 -71 -48 -81 -33 -88 10 -4 340 -137 733 -296 l715 -289 3 -31 c7 -70 -50
-246 -135 -415 -110 -220 -213 -329 -380 -402 -127 -56 -333 -69 -460 -30
l-53 17 90 103 c108 124 129 167 130 259 0 82 -7 98 -136 293 -77 117 -104
150 -151 184 -123 88 -292 105 -426 43 -77 -37 -151 -102 -215 -191 -46 -65
-112 -203 -112 -236 0 -20 -1 -20 -93 13 -133 49 -270 46 -437 -9 -243 -79
-464 -130 -735 -169 l-190 -27 -32 -254 c-33 -264 -83 -699 -83 -725 0 -13
213 -15 1795 -15 l1796 0 -11 21 c-14 25 -8 44 18 58 15 8 32 3 78 -21 32 -17
66 -37 75 -44 12 -11 74 -14 304 -14 285 0 288 0 309 23 12 12 47 45 79 73
l58 51 -15 148 c-9 81 -16 157 -16 169 0 22 34 40 330 173 l54 25 117 -123
116 -122 84 11 c46 7 101 12 122 12 37 0 38 1 32 33 -3 17 -30 187 -60 377
-31 190 -70 425 -88 522 -37 198 -39 188 39 188 l32 0 37 -192 c47 -248 118
-651 140 -798 10 -63 20 -118 24 -121 3 -4 25 -9 49 -12 l43 -5 107 129 c58
71 112 129 118 129 18 0 367 -130 382 -143 10 -8 11 -45 6 -171 l-7 -161 79
-62 c44 -33 100 -82 126 -107 l47 -45 490 -3 c270 -2 491 -1 491 2 0 3 -13 64
-29 136 -65 286 -108 574 -131 869 -14 175 -14 671 -1 830 6 66 11 125 11 132
0 9 -11 8 -42 -3 -282 -100 -955 -268 -1239 -309 l-47 -7 -27 59 c-101 217
-226 565 -304 843 -42 149 -94 371 -89 375 2 1 77 47 168 100 501 298 1141
755 1566 1119 39 34 108 93 154 131 286 241 653 582 989 919 l224 224 -214
107 c-1307 655 -2724 1074 -4219 1249 -209 25 -432 45 -730 67 -138 10 -1178
20 -1305 13z m458 -341 c-7 -2 -19 -2 -25 0 -7 3 -2 5 12 5 14 0 19 -2 13 -5z
m60 -10 c-7 -2 -21 -2 -30 0 -10 3 -4 5 12 5 17 0 24 -2 18 -5z m-1089 -5905
c8 -13 8 -23 0 -35 -9 -14 -28 -19 -88 -21 -81 -3 -106 6 -106 37 0 34 22 42
104 39 62 -2 81 -7 90 -20z m-396 0 c18 -18 14 -56 -7 -68 -11 -5 -51 -10 -90
-10 -60 0 -72 3 -81 20 -16 30 3 58 43 63 69 8 124 6 135 -5z m768 -9 c8 -7
14 -24 12 -38 -3 -24 -7 -26 -58 -29 -107 -6 -156 20 -129 69 10 20 17 21 86
16 41 -3 81 -11 89 -18z m-1148 -31 c15 -15 15 -55 0 -64 -7 -4 -43 -13 -80
-19 -74 -13 -108 -2 -108 34 0 27 20 40 81 50 78 13 94 12 107 -1z m1458 1
c55 -10 94 -31 94 -51 0 -4 -8 -16 -19 -27 -17 -17 -24 -17 -88 -7 -38 7 -74
16 -81 20 -26 16 -7 76 23 76 6 0 38 -5 71 -11z m-1845 -69 c21 -12 26 -52 7
-67 -24 -18 -141 -42 -159 -33 -51 28 -23 71 61 93 70 19 68 19 91 7z m2298
-34 c16 -10 14 -51 -4 -66 -12 -10 -29 -9 -85 5 -97 24 -119 46 -81 84 19 19
21 19 89 1 38 -9 75 -21 81 -24z m292 -87 c35 -12 70 -26 77 -32 19 -15 14
-44 -9 -60 -18 -14 -28 -13 -87 7 -77 26 -100 51 -76 84 19 27 16 27 95 1z
m373 -148 c63 -28 80 -48 70 -76 -11 -28 -48 -27 -117 4 -37 17 -67 32 -67 35
0 2 -3 11 -6 19 -6 17 21 47 42 47 8 0 43 -13 78 -29z"/>
<path d="M18206 25659 c-140 -20 -407 -110 -477 -160 -38 -27 -41 -74 -4 -91
21 -9 36 -6 102 24 184 83 353 125 544 135 384 19 701 -141 946 -477 46 -64
102 -157 238 -400 264 -469 619 -1074 760 -1294 37 -58 56 -67 96 -46 34 19
21 56 -70 202 -145 235 -370 618 -608 1038 -279 490 -283 497 -357 595 -189
250 -438 411 -719 466 -105 20 -337 25 -451 8z"/>
<path d="M35747 23899 c-30 -17 -19 -52 39 -124 325 -405 718 -992 967 -1447
97 -177 260 -498 255 -503 -2 -2 -273 -45 -603 -95 -330 -50 -715 -109 -855
-130 -140 -21 -435 -66 -655 -100 -220 -33 -409 -63 -420 -66 -41 -12 -84 -55
-100 -99 -15 -38 -16 -53 -7 -98 6 -28 209 -904 450 -1945 312 -1345 445
-1901 459 -1920 31 -42 68 -64 114 -69 35 -4 114 15 393 96 l349 101 51 -45
c572 -506 1131 -572 1648 -195 89 65 245 222 315 316 64 87 213 331 309 506
52 96 62 108 93 116 20 5 263 76 541 157 278 80 748 216 1045 301 297 84 555
161 573 171 42 21 82 88 82 137 0 20 -149 614 -330 1319 -182 705 -358 1388
-391 1517 -87 340 -95 365 -130 399 -57 57 -62 57 -514 -11 -225 -34 -411 -62
-412 -63 -1 0 13 -75 32 -165 66 -323 101 -611 114 -942 12 -282 -6 -721 -35
-885 l-6 -32 -65 55 c-338 287 -832 373 -1388 240 -33 -8 -60 -14 -61 -13 -1
1 -27 97 -58 212 -292 1077 -882 2203 -1679 3208 -76 96 -94 110 -120 96z"/>
<path d="M17342 23689 c-46 -17 -39 -49 53 -226 313 -607 779 -1173 1270
-1544 149 -112 180 -132 204 -124 26 8 44 40 36 64 -3 10 -31 35 -62 57 -514
352 -1037 969 -1365 1611 -46 89 -90 164 -98 166 -9 2 -26 0 -38 -4z"/>
<path d="M23275 22504 c-185 -75 -459 -157 -650 -194 -103 -20 -95 -11 -74
-93 30 -116 70 -320 98 -502 l26 -170 88 -37 c87 -37 344 -128 363 -128 5 0
22 66 37 148 36 192 126 609 181 840 23 100 42 182 42 182 -1 -1 -50 -21 -111
-46z"/>
<path d="M22818 20413 l-117 -4 -5 -32 c-3 -18 -10 -81 -16 -142 -14 -139 -35
-290 -61 -428 l-20 -108 22 -18 c27 -22 20 -50 -19 -72 -23 -13 -31 -28 -41
-75 -7 -32 -15 -69 -18 -82 l-5 -23 153 3 154 3 12 105 c6 58 14 120 17 139 5
29 3 33 -15 28 -13 -3 -28 2 -40 14 -25 25 -12 53 36 73 29 12 34 20 40 58 3
24 21 153 40 288 41 285 41 281 18 278 -10 -1 -71 -4 -135 -5z"/>
<path d="M22527 19332 c-11 -2 -25 -33 -42 -90 -171 -569 -406 -1073 -728
-1557 -620 -933 -1523 -1676 -2562 -2110 -198 -83 -549 -201 -756 -254 -132
-34 -330 -76 -508 -108 -24 -5 120 -7 320 -6 200 2 814 5 1364 7 868 4 1008 6
1060 20 75 20 192 20 270 1 50 -12 196 -14 858 -15 l797 0 0 263 c0 144 4 381
10 527 5 146 12 347 15 448 l6 182 -30 0 c-33 0 -55 27 -45 55 4 9 24 25 45
36 l39 19 1 88 c0 48 2 103 4 122 1 19 6 98 9 175 6 130 9 174 21 345 3 36 9
144 15 240 6 96 12 195 15 220 2 25 7 83 10 130 6 91 24 304 50 595 14 153 36
369 62 607 l6 57 -145 3 c-80 2 -152 2 -161 0z m-143 -2748 c33 -33 12 -59
-83 -104 -55 -25 -82 -21 -89 14 -5 25 14 44 77 76 65 34 74 35 95 14z m-334
-189 c21 -26 6 -49 -59 -88 -66 -40 -103 -44 -115 -11 -10 25 10 50 66 82 59
34 90 39 108 17z m-332 -197 c24 -24 12 -48 -48 -88 -75 -51 -115 -52 -115 -5
0 24 9 36 54 67 56 39 88 47 109 26z m-316 -224 c12 -25 10 -29 -24 -59 -58
-50 -105 -72 -126 -59 -41 26 -26 57 53 110 60 41 82 43 97 8z m-310 -230 c12
-25 9 -29 -37 -71 -76 -67 -116 -77 -131 -30 -6 18 4 31 52 74 67 60 98 67
116 27z"/>
<path d="M23523 19332 l-563 -2 -5 -23 c-2 -12 -11 -101 -20 -197 -8 -96 -17
-195 -20 -220 -7 -69 -33 -393 -40 -495 -3 -49 -8 -108 -10 -130 -2 -22 -7
-87 -10 -145 -3 -58 -8 -123 -10 -145 -2 -22 -7 -105 -11 -185 -3 -80 -8 -152
-9 -161 -2 -9 -6 -108 -10 -220 -4 -112 -9 -206 -10 -209 -2 -3 -6 -117 -10
-255 -4 -137 -8 -261 -10 -273 -2 -13 -6 -213 -10 -445 -3 -232 -8 -554 -11
-714 l-5 -293 205 0 c113 0 206 2 206 4 0 2 -29 28 -65 56 -47 37 -65 58 -65
75 0 20 87 265 193 545 l25 65 270 0 270 0 78 105 c76 102 256 292 361 381
l52 44 -25 249 c-14 136 -23 259 -20 272 3 12 15 26 27 29 11 4 69 30 127 57
197 93 432 198 443 198 9 0 167 -159 325 -328 l49 -53 95 17 c73 13 159 18
365 19 l270 1 159 195 c87 107 166 197 175 200 10 4 78 -16 156 -45 77 -29
205 -76 285 -105 80 -30 155 -60 167 -67 l22 -14 -6 -263 -6 -263 74 -54 c158
-114 341 -288 434 -412 l20 -26 262 26 c231 23 265 25 277 12 21 -23 266 -562
266 -587 0 -14 -51 -70 -162 -177 l-163 -156 358 0 357 0 0 288 c0 430 -25
1214 -38 1220 -37 14 -88 51 -90 65 -6 31 18 50 57 43 l34 -5 -6 110 c-3 61
-7 112 -9 113 -2 1 -94 0 -205 -2 l-202 -4 -101 -124 c-60 -74 -108 -124 -119
-124 -9 0 -100 31 -202 69 l-184 69 2 110 2 111 -57 16 c-69 20 -82 30 -82 61
0 36 30 47 80 29 52 -18 60 -19 60 -1 0 7 -32 37 -71 66 -76 57 -174 149 -231
218 l-35 42 -143 -15 c-78 -8 -154 -15 -169 -15 -26 0 -33 11 -116 192 l-89
191 123 117 124 116 -12 82 c-7 44 -11 148 -10 229 l1 148 -126 103 c-69 57
-126 110 -126 117 0 20 129 366 142 382 6 7 21 13 34 13 20 0 24 5 24 30 0 23
5 31 25 36 19 5 40 -4 88 -35 53 -34 72 -41 114 -41 49 0 53 2 83 43 20 28 27
43 18 45 -19 4 -3023 7 -3685 4z m2184 -1849 c13 -19 12 -24 -6 -42 -30 -30
-149 -31 -176 -1 -17 18 -17 21 -1 45 16 24 21 26 93 23 65 -3 78 -6 90 -25z
m377 11 c22 -21 20 -51 -3 -64 -21 -11 -112 -13 -149 -4 -26 8 -39 48 -22 69
18 22 153 21 174 -1z m-766 -16 c19 -19 14 -46 -10 -62 -35 -21 -145 -28 -163
-9 -18 18 -19 47 -2 61 24 20 157 28 175 10z m1144 -5 c5 -2 13 -13 18 -23 8
-15 6 -24 -10 -40 -17 -17 -29 -20 -73 -15 -83 10 -96 14 -108 36 -8 17 -7 25
7 41 17 17 26 19 89 13 38 -4 73 -9 77 -12z m-1530 -40 c40 -36 9 -66 -82 -80
-74 -12 -100 -4 -100 31 0 32 15 42 80 54 79 14 81 14 102 -5z m1902 -9 c27
-10 38 -41 25 -65 -10 -20 -16 -21 -72 -14 -97 10 -131 35 -113 82 5 13 18 15
75 9 38 -3 77 -9 85 -12z m-2274 -64 c19 -35 -3 -57 -67 -70 -32 -6 -64 -13
-71 -16 -23 -7 -52 15 -52 41 0 29 11 36 70 51 73 19 108 17 120 -6z m2638
-13 c28 -9 38 -18 40 -38 5 -47 -19 -55 -104 -35 -80 19 -98 35 -83 75 9 22
13 23 60 17 27 -4 67 -12 87 -19z m-3027 -57 c21 -12 26 -53 7 -67 -7 -5 -44
-18 -81 -28 -68 -18 -69 -18 -89 3 -33 33 -7 62 73 83 35 10 65 18 67 18 2 1
12 -4 23 -9z m-357 -122 c18 -30 -5 -51 -83 -78 l-73 -25 -19 23 c-27 34 -11
56 58 81 68 23 102 23 117 -1z m-370 -120 c23 -33 3 -56 -73 -84 -67 -25 -95
-24 -105 3 -13 32 5 51 72 76 83 32 87 32 106 5z m4815 -66 c63 -31 81 -54 65
-79 -18 -28 -55 -25 -119 10 -61 32 -76 56 -55 82 18 21 47 18 109 -13z
m-5175 -74 c22 -31 4 -54 -64 -84 -68 -29 -96 -30 -110 -4 -17 31 1 52 72 82
77 33 83 34 102 6z"/>
<path d="M29463 19333 c9 -2 23 -2 30 0 6 3 -1 5 -18 5 -16 0 -22 -2 -12 -5z"/>
<path d="M29810 19336 c0 -3 37 -85 81 -183 l82 -178 -123 -117 -122 -117 11
-80 c7 -44 11 -147 10 -228 l-2 -148 124 -102 c68 -56 125 -110 126 -120 2
-10 -28 -101 -66 -203 l-68 -185 -170 3 -170 3 -53 -72 c-57 -77 -161 -187
-223 -236 l-38 -30 15 -148 c9 -81 16 -158 16 -170 0 -19 -26 -34 -190 -110
l-191 -89 -67 67 c-59 58 -93 84 -79 60 3 -5 7 -71 11 -148 4 -77 8 -183 11
-235 15 -316 34 -990 35 -1221 l0 -126 1823 -7 c1002 -3 2082 -9 2400 -12
l577 -7 0 201 c0 110 -3 208 -6 217 -4 9 -70 47 -148 84 -785 375 -1496 951
-2046 1656 -121 156 -341 482 -440 655 -106 185 -269 521 -348 721 -65 164
-167 462 -193 564 l-11 45 -284 0 c-156 0 -284 -2 -284 -4z m-869 -2715 c48
-29 65 -45 67 -64 4 -30 -26 -51 -55 -40 -34 13 -120 72 -126 86 -7 18 19 57
37 57 7 0 41 -17 77 -39z m330 -211 c62 -43 76 -74 44 -100 -19 -16 -54 -2
-122 49 -43 31 -53 57 -31 79 20 20 47 14 109 -28z m308 -225 c67 -49 80 -84
40 -106 -19 -10 -29 -6 -77 28 -74 52 -87 72 -66 101 8 12 21 22 28 22 8 0 41
-20 75 -45z m304 -246 c57 -50 68 -74 45 -97 -21 -21 -45 -13 -102 35 -56 48
-69 76 -44 101 21 21 43 13 101 -39z m288 -256 c32 -31 59 -61 59 -68 0 -7 -9
-20 -19 -29 -24 -22 -47 -12 -108 47 -46 44 -55 79 -25 96 27 16 30 15 93 -46z
m276 -265 c57 -56 67 -90 34 -108 -28 -14 -27 -15 -87 41 -54 52 -66 83 -42
107 21 21 41 13 95 -40z"/>
<path d="M13675 16188 c-15 -46 -38 -505 -42 -858 -9 -685 28 -1204 133 -1840
88 -539 256 -1211 421 -1685 l38 -110 890 -5 c890 -5 890 -5 952 -27 195 -71
336 -221 363 -388 6 -37 10 -665 10 -1671 l0 -1610 30 -29 30 -29 0 1412 0
1412 37 41 c20 22 50 47 66 56 50 25 160 20 357 -19 280 -54 531 -173 740
-351 l75 -64 -85 252 -84 252 -219 7 c-204 6 -255 12 -250 33 4 15 79 22 264
22 l186 1 -48 163 c-63 208 -176 654 -233 917 -192 881 -297 1788 -313 2718
l-6 352 -86 1 c-47 1 -358 5 -691 8 -565 6 -605 7 -608 24 -3 16 16 17 290 18
l293 1 -180 33 c-310 57 -533 114 -823 211 -463 154 -941 389 -1355 666 -94
63 -149 94 -152 86z"/>
<path d="M33734 15499 c3 -34 6 -115 6 -180 l0 -119 365 0 365 0 0 -23 c0 -24
0 -24 -172 -30 -95 -4 -259 -7 -364 -7 l-191 0 -6 -347 c-14 -739 -77 -1424
-196 -2123 -16 -91 -26 -167 -24 -170 3 -3 885 -5 1961 -5 l1957 0 27 110 c74
295 159 759 202 1105 54 424 75 724 83 1195 7 409 1 540 -25 532 -10 -3 -100
-30 -202 -60 -287 -85 -468 -124 -883 -191 -195 -32 -542 -49 -867 -43 -438 8
-709 41 -1145 138 -267 59 -616 166 -844 258 l-54 22 7 -62z"/>
<path d="M17180 14909 c0 -616 63 -1389 165 -2050 92 -592 247 -1286 397
-1773 l30 -99 786 6 c433 4 1148 7 1590 7 l802 0 0 23 c0 27 10 41 33 50 21 8
61 -28 53 -49 -5 -12 120 -14 891 -14 l896 0 -6 58 c-3 31 -21 217 -41 412
-102 1019 -159 2034 -175 3132 -3 273 -9 499 -12 502 -3 3 -317 6 -699 8
l-695 3 60 -60 c112 -113 173 -250 182 -411 21 -361 -265 -664 -627 -664 -247
1 -461 135 -569 356 -42 86 -61 171 -61 274 0 165 65 324 180 441 l67 69 -491
0 c-270 0 -1001 3 -1623 7 l-1133 6 0 -234z m3800 -2693 c19 -24 35 -153 20
-171 -17 -20 -57 -19 -69 3 -17 31 -25 151 -11 167 16 19 44 19 60 1z m50
-397 c6 -10 10 -49 10 -88 0 -60 -3 -72 -20 -81 -45 -24 -70 21 -70 125 0 44
7 59 30 67 21 7 39 -1 50 -23z m8 -371 c15 -15 16 -142 2 -169 -6 -11 -21 -19
-35 -19 -33 0 -45 27 -45 104 0 45 5 69 16 80 18 19 45 21 62 4z"/>
<path d="M31512 15130 l-784 -5 21 -27 c12 -14 21 -31 21 -37 0 -10 -38 -41
-51 -41 -4 0 -31 25 -60 55 l-52 55 -401 0 c-221 0 -633 -3 -917 -7 l-516 -6
-6 -500 c-9 -661 -36 -1424 -67 -1867 -4 -69 -7 -126 -6 -127 2 -2 17 36 36
85 18 48 38 93 44 101 9 11 41 13 170 8 88 -4 163 -10 167 -14 4 -4 23 -62 43
-127 20 -66 37 -120 39 -121 12 -8 163 -56 176 -57 9 0 908 1 1999 1 1369 1
1982 4 1982 11 0 6 11 75 24 153 80 464 138 962 171 1472 16 245 36 970 28
993 -5 13 -353 13 -2061 2z m-538 -287 c53 -63 57 -88 20 -105 -26 -12 -30
-10 -80 47 -59 65 -65 86 -33 109 29 20 40 13 93 -51z m240 -292 c53 -68 58
-96 20 -113 -25 -11 -29 -9 -64 32 -64 74 -72 93 -54 118 25 36 49 27 98 -37z
m233 -303 c54 -73 55 -75 43 -98 -20 -38 -56 -25 -105 38 -47 59 -53 80 -33
100 25 25 55 13 95 -40z m1227 -73 c207 -44 390 -210 463 -422 23 -67 27 -94
27 -193 0 -102 -3 -124 -30 -200 -68 -195 -216 -341 -404 -401 -93 -30 -237
-36 -334 -15 -222 50 -413 235 -471 456 -21 78 -23 224 -6 300 43 186 193 365
368 441 110 48 260 61 387 34z"/>
<path d="M22762 14947 c-4 -204 14 -1156 28 -1512 31 -772 85 -1565 150 -2205
11 -107 20 -200 20 -207 0 -10 86 -13 425 -13 l424 0 3 543 c3 622 -2 585 100
694 94 99 210 160 400 207 56 15 102 27 104 29 1 1 4 88 8 192 l6 190 -82 57
c-139 97 -320 268 -426 402 l-23 30 -257 -26 c-142 -14 -264 -22 -272 -18 -14
8 -280 571 -281 595 0 6 86 93 191 195 l191 185 -17 95 c-14 74 -18 156 -19
363 l-1 269 -67 54 -67 54 -268 0 -267 0 -3 -173z"/>
<path d="M27877 15028 c15 -98 21 -357 13 -494 l-5 -82 200 -164 c120 -98 201
-172 202 -183 4 -25 -211 -605 -227 -615 -6 -4 -130 -5 -274 -2 l-263 5 -24
-39 c-69 -112 -268 -329 -413 -451 l-48 -40 23 -232 23 -231 471 0 471 0 29
30 c16 17 37 30 47 30 10 0 45 -13 78 -30 55 -28 67 -30 167 -29 80 0 120 5
153 18 l45 19 12 198 c39 655 63 1414 63 1987 l0 397 -378 0 -379 0 14 -92z"/>
<path d="M26030 12525 c-36 -7 -83 -13 -104 -14 -22 -1 -37 -3 -34 -6 4 -5
151 -8 232 -6 18 1 18 2 1 21 -10 11 -21 19 -24 19 -3 -1 -35 -7 -71 -14z"/>
<path d="M25398 12503 c6 -2 18 -2 25 0 6 3 1 5 -13 5 -14 0 -19 -2 -12 -5z"/>
<path d="M4962 11390 c-158 -42 -300 -146 -358 -265 l-29 -60 -3 -2730 -2
-2729 21 -63 c46 -138 177 -258 359 -326 53 -21 77 -22 609 -27 l554 -5 -75
-33 c-88 -39 -238 -134 -321 -203 l-59 -49 -369 0 -369 0 0 -455 0 -455 154 0
153 0 6 -152 c3 -84 12 -187 21 -228 120 -554 534 -964 1089 -1081 133 -28
377 -31 513 -6 284 52 529 181 735 386 258 259 391 567 406 944 l6 137 198 0
199 0 0 -112 c0 -62 5 -144 10 -183 65 -457 351 -849 765 -1050 127 -62 200
-87 340 -117 132 -28 376 -30 515 -5 279 51 527 182 731 386 258 259 391 567
406 944 l6 137 2658 0 2659 0 0 535 0 535 -104 0 c-95 0 -107 -2 -133 -24 -44
-37 -132 -82 -208 -108 l-70 -23 -2617 -3 -2618 -2 -87 69 c-99 78 -217 150
-313 192 l-65 28 2504 1 c1377 0 2502 2 2500 4 -2 2 -213 6 -469 10 -256 3
-532 9 -615 12 -82 3 -863 18 -1735 35 -1728 32 -1642 27 -1761 90 -168 90
-279 268 -279 451 0 40 16 307 35 593 19 286 50 768 69 1070 19 303 40 581 46
618 23 152 131 279 280 332 82 29 745 72 1705 110 850 34 2770 43 2894 14 25
-6 80 -27 121 -47 97 -45 203 -148 248 -242 65 -132 63 -86 60 -1423 l-3
-1212 -22 -59 c-72 -187 -233 -318 -427 -346 -41 -6 -29 -8 64 -9 66 0 144 5
183 14 162 34 299 158 348 315 18 58 19 153 19 2798 1 2974 5 2776 -53 2875
-34 57 -112 129 -175 161 -119 60 309 56 -5477 55 -5183 0 -5302 -1 -5373 -19z
m3634 -81 c128 -24 237 -107 297 -229 l32 -65 0 -940 0 -940 -31 -65 c-61
-129 -184 -212 -324 -218 -72 -4 -1579 22 -1930 33 -91 3 -419 10 -730 15
-311 6 -587 15 -614 21 -108 21 -214 109 -264 217 -20 44 -27 76 -29 142 -2
47 21 454 50 905 51 779 55 822 77 865 12 24 32 57 43 73 27 36 101 82 152 96
112 28 1285 89 1840 94 740 8 1377 6 1431 -4z m3536 -72 c68 -33 135 -99 167
-163 52 -102 51 -85 51 -1055 0 -875 -1 -909 -20 -971 -38 -123 -144 -228
-247 -244 -26 -4 -666 7 -1423 24 -1141 26 -1382 34 -1418 46 -101 36 -180
121 -219 236 -20 61 -22 131 -10 360 39 733 78 1423 83 1460 12 94 72 183 147
222 52 26 105 33 447 57 639 46 1060 59 1865 57 l520 -1 57 -28z m3380 -88
c59 -15 130 -70 175 -138 78 -114 74 -54 71 -1112 l-3 -944 -27 -57 c-34 -72
-98 -143 -163 -176 -60 -32 97 -32 -1505 3 -1391 30 -1303 27 -1366 54 -63 27
-134 99 -169 170 -51 101 -51 112 -1 1039 52 944 48 914 122 1001 56 65 95 80
257 96 164 16 515 40 832 56 481 25 1687 30 1777 8z m-5817 -2358 c203 -7 225
-10 287 -34 170 -66 297 -199 348 -366 19 -61 20 -99 20 -1311 0 -1217 0
-1250 -20 -1312 -52 -171 -200 -307 -383 -355 -73 -19 89 -20 -2767 32 -1595
29 -1946 38 -2000 50 -176 41 -328 167 -389 323 -48 120 -48 89 33 1312 41
624 80 1161 85 1193 31 184 178 321 371 347 142 19 930 66 1415 85 83 3 269
10 415 16 521 22 2172 34 2585 20z m-491 -3640 c-98 -46 -225 -127 -312 -198
l-65 -53 -630 0 -630 0 -51 43 c-107 90 -230 168 -346 218 l-65 28 1090 0
1090 0 -81 -38z m-2393 -256 c332 -58 603 -264 750 -571 66 -137 89 -230 96
-389 6 -146 -4 -234 -42 -354 -29 -91 -50 -120 -71 -99 -11 11 -10 25 11 84
146 419 -10 883 -379 1129 -171 114 -327 159 -541 158 -163 0 -276 -25 -409
-88 -53 -25 -81 -34 -88 -27 -27 27 28 65 171 116 151 54 340 70 502 41z
m3170 0 c325 -57 600 -263 744 -560 71 -144 97 -247 103 -403 5 -138 -7 -236
-44 -354 -28 -88 -49 -117 -70 -96 -11 11 -10 25 11 84 145 418 -10 883 -377
1127 -173 116 -328 161 -543 160 -163 0 -276 -25 -409 -88 -53 -25 -81 -34
-88 -27 -19 19 0 41 59 70 180 90 411 123 614 87z"/>
<path d="M8065 10709 c-4 -6 -10 -103 -13 -216 l-5 -205 29 4 29 3 8 190 c4
105 5 200 2 213 -6 23 -38 31 -50 11z"/>
<path d="M8373 10708 c-9 -14 -32 -405 -25 -425 3 -11 49 -19 53 -10 1 1 7 97
13 212 12 208 10 235 -20 235 -7 0 -16 -6 -21 -12z"/>
<path d="M8185 10698 c-9 -28 -23 -384 -14 -392 17 -19 26 43 33 222 6 131 5
182 -3 182 -7 0 -14 -6 -16 -12z"/>
<path d="M8247 10702 c-11 -17 -19 -389 -9 -396 6 -3 13 -3 15 1 3 5 8 97 12
206 5 138 4 197 -3 197 -6 0 -13 -3 -15 -8z"/>
<path d="M7956 10658 c-11 -83 -11 -343 -1 -348 12 -6 21 83 27 263 4 99 2
127 -8 127 -8 0 -15 -17 -18 -42z"/>
<path d="M8000 10500 c0 -157 3 -201 13 -197 9 3 12 51 12 197 0 146 -3 194
-12 198 -10 3 -13 -41 -13 -198z"/>
<path d="M8294 10593 c-11 -159 -10 -278 1 -281 10 -3 17 57 29 266 7 105 6
122 -7 122 -12 0 -17 -22 -23 -107z"/>
<path d="M11615 10660 c-3 -6 -9 -103 -12 -216 l-6 -206 24 4 c24 3 24 5 32
148 10 202 6 274 -15 278 -9 2 -19 -2 -23 -8z"/>
<path d="M11876 10661 c-9 -13 -28 -420 -21 -431 4 -6 15 -10 25 -10 16 0 19
11 24 73 3 39 7 139 9 222 2 132 0 150 -15 153 -9 2 -19 -1 -22 -7z"/>
<path d="M11717 10653 c-11 -18 -19 -390 -9 -397 13 -8 19 51 27 246 3 86 1
149 -4 153 -5 3 -12 2 -14 -2z"/>
<path d="M11767 10653 c-10 -17 -12 -388 -2 -393 13 -7 30 379 17 392 -5 5
-12 6 -15 1z"/>
<path d="M11516 10543 c-9 -150 -8 -281 3 -287 16 -11 21 25 23 182 l2 157 6
-168 c7 -237 24 -222 28 24 l2 196 -28 1 -29 1 -7 -106z"/>
<path d="M11817 10643 c-4 -6 -21 -303 -22 -370 0 -7 5 -13 10 -13 12 -1 20
70 29 253 5 89 4 137 -3 137 -5 0 -12 -3 -14 -7z"/>
<path d="M15042 10558 c-9 -9 -12 -70 -12 -214 0 -204 5 -234 35 -203 10 10
14 64 17 209 3 213 -3 245 -40 208z"/>
<path d="M15302 10558 c-6 -7 -15 -105 -20 -218 -8 -174 -7 -207 5 -220 31
-32 40 10 47 225 4 112 5 209 1 215 -8 13 -20 13 -33 -2z"/>
<path d="M15145 10550 c-9 -15 -24 -384 -15 -393 16 -17 20 14 26 207 7 182 5
212 -11 186z"/>
<path d="M15197 10553 c-13 -21 -22 -403 -9 -403 6 0 13 32 17 73 8 95 2 346
-8 330z"/>
<path d="M14955 10540 c-11 -18 -19 -390 -8 -390 16 0 23 60 25 215 l2 140 6
-173 c7 -241 25 -227 25 20 0 189 0 191 -22 194 -12 2 -25 -1 -28 -6z"/>
<path d="M15236 10488 c-13 -149 -18 -338 -8 -338 16 0 20 39 28 228 4 114 3
172 -4 172 -5 0 -12 -28 -16 -62z"/>
<path d="M9115 7948 c-3 -13 -6 -144 -8 -293 l-2 -270 29 -3 c16 -2 32 0 37 5
5 5 14 132 20 282 10 297 10 301 -42 301 -21 0 -30 -6 -34 -22z"/>
<path d="M9555 7960 c-3 -5 -13 -138 -22 -296 -14 -258 -14 -287 0 -301 19
-19 64 -10 71 15 8 30 30 557 23 575 -7 19 -61 24 -72 7z"/>
<path d="M9290 7958 c-9 -51 -27 -545 -20 -552 5 -5 15 -6 23 -3 11 4 15 42
21 169 3 89 9 214 13 276 6 110 6 112 -16 112 -11 0 -21 -1 -21 -2z"/>
<path d="M9377 7953 c-4 -7 -22 -434 -22 -533 0 -8 9 -15 20 -15 19 0 20 9 26
130 4 72 8 195 10 275 3 127 1 145 -13 148 -9 2 -18 -1 -21 -5z"/>
<path d="M8975 7939 c-10 -15 -24 -252 -25 -406 0 -123 1 -133 19 -133 17 0
19 13 25 173 3 94 9 218 13 275 5 89 4 102 -10 102 -9 0 -19 -5 -22 -11z"/>
<path d="M9025 7938 c-3 -7 -4 -130 -3 -273 3 -252 4 -260 23 -260 20 0 20 7
20 270 0 249 -1 270 -18 273 -9 2 -19 -3 -22 -10z"/>
<path d="M9460 7948 c-9 -42 -35 -536 -29 -542 16 -18 39 3 39 36 0 18 7 128
15 243 19 274 19 265 -5 265 -11 0 -20 -1 -20 -2z"/>
<path d="M17795 10908 c110 -353 252 -748 389 -1077 31 -73 54 -137 51 -141
-3 -5 0 -10 7 -12 7 -3 4 -7 -7 -12 -11 -4 -16 -4 -13 0 7 6 -18 64 -27 64 -5
0 4 -28 14 -45 3 -5 7 -19 8 -30 2 -11 8 -24 14 -30 7 -7 10 -5 7 5 -1 9 1 15
7 15 5 0 8 -6 7 -14 -2 -7 1 -10 7 -6 6 3 11 1 11 -5 0 -7 -7 -10 -15 -7 -8 4
-17 2 -20 -3 -4 -6 1 -10 10 -10 10 0 13 -5 9 -12 -5 -8 0 -7 11 2 10 8 16 10
12 4 -4 -7 0 -17 8 -24 7 -6 11 -18 8 -26 -3 -8 0 -14 5 -14 11 0 28 -38 24
-52 -1 -5 2 -8 7 -8 8 0 20 -23 27 -52 1 -5 3 -11 4 -15 1 -5 2 -11 1 -15 0
-5 4 -8 11 -8 6 0 4 -8 -6 -19 -17 -19 -17 -19 3 -14 15 4 23 -1 32 -21 l12
-26 527 0 527 0 34 -23 c30 -20 39 -38 76 -146 24 -68 40 -127 37 -132 -3 -5
-12 -9 -20 -9 -49 0 -114 -75 -114 -130 0 -41 491 -1845 509 -1870 10 -14 33
-34 51 -44 30 -18 40 -19 114 -8 45 7 91 15 102 18 20 5 22 1 29 -80 l7 -86
508 0 509 0 26 26 26 26 44 -26 44 -26 1110 0 c611 0 1111 3 1111 8 0 4 -21
72 -46 152 -322 1017 -603 2414 -775 3857 l-12 101 -901 4 -901 3 -22 -22
c-12 -13 -26 -23 -32 -23 -10 0 -37 24 -43 38 -1 5 -699 12 -1576 16 l-1574 7
7 -23z m3185 -234 c11 -12 11 -30 3 -85 -12 -75 -25 -99 -53 -99 -37 0 -45 26
-33 107 6 42 17 79 24 84 21 13 45 11 59 -7z m-71 -382 c7 -12 4 -38 -9 -85
-24 -85 -25 -87 -60 -87 -23 0 -31 6 -36 24 -6 24 21 132 38 154 15 18 56 15
67 -6z m-125 -358 c9 -8 16 -21 16 -28 0 -23 -42 -120 -60 -140 -21 -22 -56
-14 -65 15 -8 24 31 128 58 152 24 21 31 21 51 1z m-160 -350 c9 -8 16 -23 16
-32 0 -23 -60 -122 -82 -136 -23 -14 -52 2 -56 31 -3 22 50 120 76 141 21 16
27 15 46 -4z m-206 -326 c21 -21 13 -47 -29 -103 -45 -59 -62 -70 -90 -55 -31
17 -22 54 27 114 45 56 69 67 92 44z m-248 -298 c13 -24 3 -45 -38 -81 -72
-65 -100 -71 -122 -28 -11 19 -6 27 45 75 61 58 97 69 115 34z m-300 -239 c15
-30 3 -47 -58 -86 -60 -38 -64 -36 -76 21 -6 29 -4 33 36 57 52 31 84 34 98 8z
m220 -580 c46 -69 50 -97 15 -113 -31 -14 -41 -6 -89 72 -31 49 -35 63 -26 80
21 39 56 25 100 -39z m181 -263 c33 -28 89 -108 89 -127 0 -13 -10 -26 -26
-33 -25 -12 -29 -10 -66 32 -60 69 -70 92 -52 119 17 24 33 27 55 9z m297
-348 c52 -62 56 -82 21 -101 -26 -13 -46 -1 -97 59 -44 53 -50 70 -30 90 26
26 55 12 106 -48z m263 -261 c64 -55 76 -89 38 -109 -16 -9 -25 -8 -42 3 -41
28 -107 95 -107 108 0 15 29 49 43 49 5 0 36 -23 68 -51z m317 -267 c43 -35
52 -58 30 -80 -21 -21 -48 -13 -104 30 -65 51 -75 75 -44 100 26 21 35 17 118
-50z"/>
<path d="M22976 10878 c2 -18 20 -163 40 -323 138 -1149 349 -2281 589 -3160
36 -132 77 -280 90 -330 51 -189 80 -270 98 -273 16 -3 17 116 17 2057 l0
2061 -419 0 -420 0 5 -32z"/>
<path d="M42954 7060 l1 -3100 416 0 415 0 0 -162 c0 -274 52 -469 185 -694
297 -503 895 -746 1475 -599 417 106 776 441 914 853 53 160 65 240 65 442 0
169 -3 195 -27 293 -60 236 -165 428 -327 599 -44 47 -106 104 -136 128 -31
24 -54 44 -52 46 5 5 1620 36 1644 31 26 -5 28 10 17 119 l-6 59 -174 -3 -174
-3 0 -44 0 -45 -67 0 c-116 0 -217 67 -243 160 -6 19 -10 170 -10 335 1 367 7
391 105 436 35 16 69 19 278 19 219 0 237 1 237 18 0 9 -20 350 -44 757 l-44
740 -427 1310 c-235 721 -433 1322 -441 1336 -7 14 -26 35 -41 45 -27 18 -78
19 -1784 22 l-1756 2 1 -3100z m314 804 c2 -1692 0 -1923 -13 -1934 -8 -7 -22
-10 -30 -6 -13 5 -15 222 -15 1936 l0 1931 28 -3 27 -3 3 -1921z m1513 -595
c59 -29 83 -88 77 -184 -4 -55 -11 -81 -28 -105 -42 -58 -53 -60 -447 -60
-340 0 -360 1 -391 20 -58 36 -73 73 -70 172 3 98 19 130 79 160 30 16 71 18
387 18 337 0 355 -1 393 -21z m619 -2314 c335 -74 644 -314 802 -621 92 -180
131 -344 131 -554 -1 -245 -81 -526 -134 -473 -10 10 -5 33 20 106 43 126 60
229 61 368 1 322 -118 600 -353 826 -165 158 -343 251 -582 304 -80 18 -321
18 -410 0 -96 -19 -231 -64 -305 -101 -65 -33 -90 -33 -90 -2 0 38 256 137
415 162 88 13 356 4 445 -15z m-1157 -164 c-120 -100 -233 -241 -312 -391
l-51 -95 0 180 c0 99 3 217 7 262 l6 82 96 4 c53 1 145 4 204 5 l108 2 -58
-49z m992 -416 c258 -54 455 -282 472 -545 7 -112 -10 -212 -54 -302 -97 -203
-285 -331 -509 -345 -178 -11 -336 47 -460 171 -77 78 -120 146 -155 246 -19
53 -23 86 -23 185 0 99 4 132 23 185 35 101 78 169 155 245 146 145 346 203
551 160z"/>
<path d="M39745 10095 c-24 -23 -25 -30 -25 -142 0 -65 -5 -275 -11 -467 l-12
-350 27 -23 c34 -29 58 -29 91 0 l26 22 9 260 c5 143 12 353 15 467 l7 207
-26 26 c-32 32 -70 32 -101 0z"/>
<path d="M40475 10095 c-14 -13 -25 -32 -25 -42 0 -10 -11 -227 -25 -483 -24
-453 -25 -466 -7 -490 27 -36 83 -39 109 -7 17 22 21 67 41 458 28 537 28 543
2 569 -27 27 -66 25 -95 -5z"/>
<path d="M40024 10089 c-10 -17 -50 -928 -41 -945 10 -17 41 -18 54 -1 16 19
56 926 42 943 -14 17 -45 18 -55 3z"/>
<path d="M40165 10090 c-8 -13 -38 -927 -31 -945 6 -16 51 -21 60 -6 3 5 13
217 22 471 12 360 13 464 4 475 -14 17 -46 20 -55 5z"/>
<path d="M39496 10064 c-12 -31 -26 -251 -36 -577 -12 -350 -11 -361 34 -355
19 3 22 12 28 83 4 44 12 231 18 415 6 184 15 355 20 379 4 25 6 51 3 58 -7
19 -60 16 -67 -3z"/>
<path d="M39585 10068 c-3 -7 -4 -220 -3 -473 l3 -460 30 0 30 0 0 470 0 470
-28 3 c-16 2 -29 -2 -32 -10z"/>
<path d="M40305 10068 c-12 -32 -62 -914 -53 -925 6 -7 18 -13 28 -13 10 0 22
6 27 13 12 14 68 898 60 922 -8 18 -56 20 -62 3z"/>
<path d="M18264 9548 c-11 -33 -11 -41 -1 -55 5 -7 6 -16 4 -21 -3 -4 -2 -13
2 -20 5 -9 14 -5 30 12 19 20 20 24 6 30 -11 4 -15 1 -13 -11 2 -9 -2 -18 -8
-20 -7 -2 -10 15 -9 52 1 30 0 55 -1 55 -1 0 -6 -10 -10 -22z"/>
<path d="M18307 9449 c-9 -6 -15 -14 -12 -20 10 -14 25 -11 25 7 0 9 5 12 12
8 7 -4 8 -3 4 4 -8 14 -6 14 -29 1z"/>
<path d="M18276 9420 c5 -8 9 -18 9 -22 0 -5 4 -8 8 -9 18 -2 16 9 -5 27 -13
11 -18 13 -12 4z"/>
<path d="M18335 9391 c-3 -5 0 -13 6 -17 7 -4 9 -3 5 4 -3 5 0 13 6 15 9 4 10
6 1 6 -6 1 -14 -3 -18 -8z"/>
<path d="M18280 9359 c0 -4 5 -11 11 -14 6 -4 8 -13 5 -21 -3 -8 0 -11 10 -7
8 3 12 8 10 11 -3 3 2 10 11 17 13 9 13 14 3 20 -9 5 -11 4 -6 -3 4 -7 2 -12
-3 -12 -6 0 -11 4 -11 8 0 5 -7 9 -15 9 -8 0 -15 -4 -15 -8z"/>
<path d="M17350 8957 c-19 -12 -43 -37 -54 -56 -19 -33 -19 -37 3 -764 23
-796 21 -775 81 -819 19 -14 148 -38 520 -99 272 -44 758 -122 1079 -174 321
-52 595 -95 610 -95 59 0 131 73 131 134 0 29 -432 1757 -452 1809 -6 15 -26
41 -45 57 l-34 30 -903 0 -903 0 -33 -23z"/>
<path d="M14673 7718 c-10 -13 -25 -532 -16 -555 2 -7 18 -13 34 -13 21 0 32
6 38 23 11 28 25 516 16 540 -8 20 -57 23 -72 5z"/>
<path d="M15095 7708 c-8 -35 -33 -551 -28 -565 13 -32 70 -25 78 11 12 56 32
552 23 564 -6 6 -23 12 -39 12 -21 0 -30 -6 -34 -22z"/>
<path d="M14840 7718 c-8 -39 -26 -536 -20 -542 5 -5 15 -6 23 -3 11 4 15 43
21 179 3 95 9 217 13 271 6 94 5 97 -16 97 -11 0 -21 -1 -21 -2z"/>
<path d="M14916 7543 c-3 -98 -8 -220 -11 -271 -5 -78 -3 -93 10 -99 9 -3 20
-2 25 3 4 5 11 129 15 277 7 263 7 267 -13 267 -19 0 -20 -9 -26 -177z"/>
<path d="M14526 7683 c-3 -16 -9 -138 -12 -272 -7 -236 -7 -243 12 -239 18 3
20 17 26 178 3 96 9 217 12 268 6 86 5 92 -13 92 -12 0 -21 -9 -25 -27z"/>
<path d="M14580 7440 c0 -263 0 -270 20 -270 20 0 20 7 20 270 0 263 0 270
-20 270 -20 0 -20 -7 -20 -270z"/>
<path d="M15006 7698 c-3 -7 -9 -94 -15 -193 -7 -99 -14 -215 -18 -257 -5 -74
-5 -78 15 -78 24 0 26 13 42 275 17 278 17 259 -3 263 -9 2 -19 -2 -21 -10z"/>
<path d="M17394 6836 c-56 -25 -74 -59 -74 -143 0 -83 14 -120 57 -149 26 -18
50 -19 338 -19 288 0 312 1 338 19 44 30 61 72 60 149 -1 79 -18 111 -74 139
-30 16 -67 18 -324 18 -220 -1 -297 -4 -321 -14z"/>
<path d="M20297 6653 c10 -169 -5 -139 144 -286 799 -787 1615 -1337 2545
-1712 230 -93 756 -265 811 -265 10 0 13 88 15 468 l3 467 26 3 27 3 -19 40
c-35 70 -39 136 -39 583 l-1 441 -53 155 -54 155 -1093 3 c-839 2 -1099 0
-1117 -10 -18 -9 -30 -9 -56 0 -23 9 -184 12 -588 12 l-555 0 4 -57z m1466
-54 c72 -38 87 -63 58 -92 l-20 -21 -52 25 c-92 42 -119 75 -87 107 19 19 40
15 101 -19z m380 -191 c31 -16 38 -24 35 -45 -5 -46 -28 -49 -103 -18 -81 35
-103 66 -67 96 25 19 40 16 135 -33z m313 -124 c79 -27 106 -64 68 -94 -12
-11 -25 -10 -72 4 -76 24 -102 42 -102 70 0 42 25 46 106 20z m383 -122 c61
-19 82 -42 65 -69 -16 -26 -37 -27 -110 -7 -71 19 -92 40 -74 74 13 24 45 25
119 2z m368 -83 c71 -12 92 -33 72 -70 -10 -20 -16 -21 -75 -15 -88 9 -114 20
-114 49 0 26 17 47 39 47 8 0 43 -5 78 -11z m397 -55 c37 -5 50 -12 58 -30 18
-38 -4 -54 -76 -54 -67 0 -109 16 -114 43 -8 43 30 55 132 41z"/>
<path d="M20320 6304 c-1 -51 31 -638 36 -661 2 -13 18 -30 35 -38 16 -9 39
-30 49 -48 18 -29 20 -51 20 -258 l0 -227 176 -76 c857 -373 1787 -657 2712
-831 193 -36 428 -75 450 -75 9 0 12 28 12 108 l0 107 -128 34 c-70 18 -224
65 -342 103 -883 288 -1726 765 -2493 1410 -131 111 -154 131 -271 238 -87 80
-85 78 -174 164 -79 77 -82 79 -82 50z"/>
<path d="M18152 5269 c-238 -32 -478 -131 -668 -275 -93 -71 -236 -220 -302
-316 -113 -166 -194 -367 -227 -567 -14 -81 -17 -138 -12 -255 9 -241 44 -384
147 -591 190 -384 552 -656 986 -741 133 -26 386 -24 521 5 611 129 1058 629
1109 1240 l7 84 321 -7 c360 -7 398 -2 455 55 l31 31 0 401 c0 468 4 449 -96
486 -54 21 -69 21 -293 16 -130 -2 -355 -7 -502 -10 l-265 -6 -74 70 c-192
184 -430 308 -693 362 -118 24 -334 33 -445 18z m369 -374 c314 -55 579 -245
733 -526 132 -242 157 -559 63 -822 -18 -50 -27 -63 -46 -65 -21 -3 -23 -1
-19 25 3 15 18 69 34 118 26 85 28 100 28 265 0 161 -3 182 -27 263 -119 388
-433 652 -828 698 -178 21 -376 -14 -533 -93 -59 -30 -86 -31 -86 -3 0 40 227
128 385 148 74 10 219 6 296 -8z"/>
<path d="M25650 5045 c-339 -62 -630 -241 -836 -514 -121 -161 -220 -396 -244
-581 -15 -116 -12 -343 6 -445 81 -471 430 -872 892 -1024 126 -42 255 -61
412 -61 227 0 396 39 589 135 363 182 619 513 707 915 15 69 19 124 18 290 -1
189 -3 213 -28 304 -67 250 -177 440 -356 616 -196 195 -432 316 -705 364
-111 20 -350 20 -455 1z m508 -135 c648 -135 1059 -769 923 -1425 -25 -120
-63 -219 -86 -223 -34 -7 -35 14 -6 98 46 133 63 231 64 370 0 146 -19 259
-68 396 -138 388 -488 677 -898 744 -106 17 -288 12 -400 -11 -99 -20 -259
-75 -305 -105 -29 -19 -66 -15 -70 8 -9 46 303 154 498 172 80 7 258 -5 348
-24z m-129 -585 c162 -39 316 -164 389 -316 48 -100 62 -162 62 -272 0 -105
-21 -192 -67 -280 -149 -283 -495 -400 -788 -267 -167 76 -292 229 -336 410
-16 69 -16 208 0 280 47 204 218 380 426 441 76 22 228 24 314 4z"/>
<path d="M29375 5044 c-328 -59 -620 -237 -829 -506 -304 -394 -349 -968 -111
-1416 94 -176 247 -352 407 -466 149 -105 353 -190 541 -222 140 -24 409 -15
537 19 387 102 684 336 859 677 96 186 138 344 148 555 31 668 -436 1247
-1096 1359 -117 20 -345 20 -456 0z m495 -130 c390 -74 725 -351 879 -726 108
-266 113 -600 11 -870 -16 -44 -26 -58 -41 -58 -31 0 -32 21 -5 92 84 223 88
511 10 743 -98 295 -307 533 -589 671 -152 75 -273 105 -447 111 -208 8 -358
-21 -537 -103 -86 -39 -111 -43 -111 -14 0 52 297 155 500 174 72 6 248 -4
330 -20z m-115 -589 c143 -37 270 -126 351 -247 65 -98 94 -186 101 -308 10
-178 -50 -336 -176 -460 -74 -73 -175 -131 -272 -156 -82 -22 -225 -22 -308 0
-307 79 -502 397 -436 710 47 223 216 401 435 460 73 20 230 20 305 1z"/>
<path d="M38560 5045 c-200 -37 -386 -114 -543 -226 -104 -74 -251 -224 -325
-332 -107 -155 -191 -368 -213 -542 -16 -116 -13 -336 5 -437 98 -547 534
-981 1080 -1074 147 -25 404 -15 541 20 123 31 184 55 299 114 378 195 642
577 697 1009 11 86 8 319 -4 378 -3 11 -8 40 -12 65 -12 71 -64 217 -110 310
-191 380 -543 642 -961 715 -107 19 -350 18 -454 0z m508 -135 c468 -97 823
-456 928 -939 24 -106 23 -357 0 -466 -28 -129 -69 -239 -90 -243 -37 -7 -38
14 -7 101 118 334 72 709 -123 1001 -165 247 -390 407 -688 488 -72 19 -107
22 -268 23 -172 0 -192 -2 -284 -28 -55 -15 -142 -46 -193 -68 -51 -23 -100
-39 -108 -35 -30 11 -14 36 43 65 122 62 299 112 442 125 80 7 258 -5 348 -24z
m-146 -581 c29 -6 91 -29 137 -51 154 -73 272 -220 316 -393 19 -76 19 -212 0
-294 -48 -201 -219 -376 -430 -436 -72 -21 -217 -24 -295 -5 -237 56 -415 245
-457 487 -25 143 4 295 79 421 70 116 224 230 361 267 63 17 216 19 289 4z"/>
</g>
</svg>
